<svg id="SvgjsSvg1254" width="650" height="317" xmlns="http://www.w3.org/2000/svg" version="1.1" xmlns:xlink="http://www.w3.org/1999/xlink" xmlns:svgjs="http://svgjs.com/svgjs"><defs id="SvgjsDefs1255"><marker id="SvgjsMarker1302" markerWidth="16" markerHeight="12" refX="16" refY="6" viewBox="0 0 16 12" orient="auto" markerUnits="userSpaceOnUse"><path id="SvgjsPath1303" d="M0,2 L14,6 L0,11 L0,2" fill="#323232" stroke="#323232" stroke-width="2"></path></marker><marker id="SvgjsMarker1313" markerWidth="16" markerHeight="12" refX="16" refY="6" viewBox="0 0 16 12" orient="auto" markerUnits="userSpaceOnUse"><path id="SvgjsPath1314" d="M0,2 L14,6 L0,11 L0,2" fill="#323232" stroke="#323232" stroke-width="2"></path></marker><marker id="SvgjsMarker1317" markerWidth="16" markerHeight="12" refX="16" refY="6" viewBox="0 0 16 12" orient="auto" markerUnits="userSpaceOnUse"><path id="SvgjsPath1318" d="M0,2 L14,6 L0,11 L0,2" fill="#323232" stroke="#323232" stroke-width="2"></path></marker><marker id="SvgjsMarker1321" markerWidth="16" markerHeight="12" refX="16" refY="6" viewBox="0 0 16 12" orient="auto" markerUnits="userSpaceOnUse"><path id="SvgjsPath1322" d="M0,2 L14,6 L0,11 L0,2" fill="#323232" stroke="#323232" stroke-width="2"></path></marker><marker id="SvgjsMarker1325" markerWidth="16" markerHeight="12" refX="16" refY="6" viewBox="0 0 16 12" orient="auto" markerUnits="userSpaceOnUse"><path id="SvgjsPath1326" d="M0,2 L14,6 L0,11 L0,2" fill="#323232" stroke="#323232" stroke-width="2"></path></marker><marker id="SvgjsMarker1341" markerWidth="16" markerHeight="12" refX="16" refY="6" viewBox="0 0 16 12" orient="auto" markerUnits="userSpaceOnUse"><path id="SvgjsPath1342" d="M0,2 L14,6 L0,11 L0,2" fill="#323232" stroke="#323232" stroke-width="2"></path></marker><marker id="SvgjsMarker1345" markerWidth="16" markerHeight="12" refX="16" refY="6" viewBox="0 0 16 12" orient="auto" markerUnits="userSpaceOnUse"><path id="SvgjsPath1346" d="M0,2 L14,6 L0,11 L0,2" fill="#323232" stroke="#323232" stroke-width="2"></path></marker></defs><g id="SvgjsG1256" transform="translate(129,123)"><path id="SvgjsPath1257" d="M 0 0L 93 0L 93 42L 0 42Z" stroke="#323232" stroke-width="2" fill-opacity="1" fill="#ffffff"></path><g id="SvgjsG1258"><text id="SvgjsText1259" font-family="微软雅黑" text-anchor="middle" font-size="13px" width="30" fill="#323232" font-weight="400" align="middle" anchor="middle" family="微软雅黑" size="13px" weight="400" font-style="" y="11.05" transform="rotate(0)"><tspan id="SvgjsTspan1260" dy="16" x="46.5"><tspan id="SvgjsTspan1261" style="text-decoration:;">NEW</tspan></tspan></text></g></g><g id="SvgjsG1262" transform="translate(311,125.5)"><path id="SvgjsPath1263" d="M 0 0L 121 0L 121 37L 0 37Z" stroke="#323232" stroke-width="2" fill-opacity="1" fill="#ffffff"></path><g id="SvgjsG1264"><text id="SvgjsText1265" font-family="微软雅黑" text-anchor="middle" font-size="13px" width="85" fill="#323232" font-weight="400" align="middle" anchor="middle" family="微软雅黑" size="13px" weight="400" font-style="" y="8.55" transform="rotate(0)"><tspan id="SvgjsTspan1266" dy="16" x="60.5"><tspan id="SvgjsTspan1267" style="text-decoration:;">COMPLETING</tspan></tspan></text></g></g><g id="SvgjsG1268" transform="translate(496,49.25)"><path id="SvgjsPath1269" d="M 0 0L 121 0L 121 34.5L 0 34.5Z" stroke="#323232" stroke-width="2" fill-opacity="1" fill="#ffffff"></path><g id="SvgjsG1270"><text id="SvgjsText1271" font-family="微软雅黑" text-anchor="middle" font-size="13px" width="89" fill="#323232" font-weight="400" align="middle" anchor="middle" family="微软雅黑" size="13px" weight="400" font-style="" y="7.3" transform="rotate(0)"><tspan id="SvgjsTspan1272" dy="16" x="60.5"><tspan id="SvgjsTspan1273" style="text-decoration:;">EXCEPTIONAL</tspan></tspan></text></g></g><g id="SvgjsG1274" transform="translate(504,185.5)"><path id="SvgjsPath1275" d="M 0 0L 121 0L 121 37L 0 37Z" stroke="#323232" stroke-width="2" fill-opacity="1" fill="#ffffff"></path><g id="SvgjsG1276"><text id="SvgjsText1277" font-family="微软雅黑" text-anchor="middle" font-size="13px" width="56" fill="#323232" font-weight="400" align="middle" anchor="middle" family="微软雅黑" size="13px" weight="400" font-style="" y="8.55" transform="rotate(0)"><tspan id="SvgjsTspan1278" dy="16" x="60.5"><tspan id="SvgjsTspan1279" style="text-decoration:;">NORMAL</tspan></tspan></text></g></g><g id="SvgjsG1280" transform="translate(122,25)"><path id="SvgjsPath1281" d="M 0 0L 107 0L 107 35.5L 0 35.5Z" stroke="#323232" stroke-width="2" fill-opacity="1" fill="#ffffff"></path><g id="SvgjsG1282"><text id="SvgjsText1283" font-family="微软雅黑" text-anchor="middle" font-size="13px" width="78" fill="#323232" font-weight="400" align="middle" anchor="middle" family="微软雅黑" size="13px" weight="400" font-style="" y="7.8" transform="rotate(0)"><tspan id="SvgjsTspan1284" dy="16" x="53.5"><tspan id="SvgjsTspan1285" style="text-decoration:;">CANCELLED</tspan></tspan></text></g></g><g id="SvgjsG1286" transform="translate(198,80.5)"><path id="SvgjsPath1287" d="M 0 0L 160 0L 160 40L 0 40Z" stroke="none" fill="none"></path><g id="SvgjsG1288"><text id="SvgjsText1289" font-family="微软雅黑" text-anchor="middle" font-size="13px" width="91" fill="#323232" font-weight="400" align="middle" anchor="middle" family="微软雅黑" size="13px" weight="400" font-style="" y="2.05" transform="rotate(0)"><tspan id="SvgjsTspan1290" dy="16" x="80"><tspan id="SvgjsTspan1291" style="text-decoration:;">抛出异常时调用</tspan></tspan><tspan id="SvgjsTspan1292" dy="16" x="80"><tspan id="SvgjsTspan1293" style="text-decoration:;">setException()</tspan></tspan></text></g></g><g id="SvgjsG1294" transform="translate(188,164.5)"><path id="SvgjsPath1295" d="M 0 0L 160 0L 160 40L 0 40Z" stroke="none" fill="none"></path><g id="SvgjsG1296"><text id="SvgjsText1297" font-family="微软雅黑" text-anchor="middle" font-size="13px" width="118" fill="#323232" font-weight="400" align="middle" anchor="middle" family="微软雅黑" size="13px" weight="400" font-style="" y="2.05" transform="rotate(0)"><tspan id="SvgjsTspan1298" dy="16" x="80"><tspan id="SvgjsTspan1299" style="text-decoration:;">任务完成时调用set()</tspan></tspan></text></g></g><g id="SvgjsG1300"><path id="SvgjsPath1301" d="M175.5 123L175.5 91.75L175.5 91.75L175.5 60.5" stroke="#323232" stroke-width="2" fill="none" marker-end="url(#SvgjsMarker1302)"></path></g><g id="SvgjsG1304" transform="translate(25,78)"><path id="SvgjsPath1305" d="M 0 0L 222 0L 222 35L 0 35Z" stroke="none" fill="none"></path><g id="SvgjsG1306"><text id="SvgjsText1307" font-family="微软雅黑" text-anchor="middle" font-size="13px" width="77" fill="#323232" font-weight="400" align="middle" anchor="middle" family="微软雅黑" size="13px" weight="400" font-style="" y="7.55" transform="rotate(0)"><tspan id="SvgjsTspan1308" dy="16" x="111"><tspan id="SvgjsTspan1309" style="text-decoration:;"> cancel(false</tspan><tspan id="SvgjsTspan1310" style="text-decoration:;font-size: inherit;">)</tspan></tspan></text></g></g><g id="SvgjsG1311"><path id="SvgjsPath1312" d="M432 144C 472.2039799024922 144 455.7960200975078 66.5 496 66.5" stroke="#323232" stroke-width="2" fill="none" marker-end="url(#SvgjsMarker1313)"></path></g><g id="SvgjsG1315"><path id="SvgjsPath1316" d="M432 144C 469.4891984443519 144 466.5108015556481 204 504 204" stroke="#323232" stroke-width="2" fill="none" marker-end="url(#SvgjsMarker1317)"></path></g><g id="SvgjsG1319"><path id="SvgjsPath1320" d="M222 144C 247 126 271 105 311 144" stroke="#323232" stroke-width="2" fill="none" marker-end="url(#SvgjsMarker1321)"></path></g><g id="SvgjsG1323"><path id="SvgjsPath1324" d="M222 144C 257 166 283 166 311 144" stroke="#323232" stroke-width="2" fill="none" marker-end="url(#SvgjsMarker1325)"></path></g><g id="SvgjsG1327" transform="translate(116.5,233)"><path id="SvgjsPath1328" d="M 0 0L 118 0L 118 35.5L 0 35.5Z" stroke="#323232" stroke-width="2" fill-opacity="1" fill="#ffffff"></path><g id="SvgjsG1329"><text id="SvgjsText1330" font-family="微软雅黑" text-anchor="middle" font-size="13px" width="94" fill="#323232" font-weight="400" align="middle" anchor="middle" family="微软雅黑" size="13px" weight="400" font-style="" y="7.8" transform="rotate(0)"><tspan id="SvgjsTspan1331" dy="16" x="59"><tspan id="SvgjsTspan1332" style="text-decoration:;">INTERRUPTING</tspan></tspan></text></g></g><g id="SvgjsG1333" transform="translate(361,233)"><path id="SvgjsPath1334" d="M 0 0L 117 0L 117 35.5L 0 35.5Z" stroke="#323232" stroke-width="2" fill-opacity="1" fill="#ffffff"></path><g id="SvgjsG1335"><text id="SvgjsText1336" font-family="微软雅黑" text-anchor="middle" font-size="13px" width="89" fill="#323232" font-weight="400" align="middle" anchor="middle" family="微软雅黑" size="13px" weight="400" font-style="" y="7.8" transform="rotate(0)"><tspan id="SvgjsTspan1337" dy="16" x="58.5"><tspan id="SvgjsTspan1338" style="text-decoration:;">INTERRUPTED</tspan></tspan></text></g></g><g id="SvgjsG1339"><path id="SvgjsPath1340" d="M175.5 165C 175.5 192.2 175.5 205.8 175.5 233" stroke="#323232" stroke-width="2" fill="none" marker-end="url(#SvgjsMarker1341)"></path></g><g id="SvgjsG1343"><path id="SvgjsPath1344" d="M234.5 250.75C 285.1 250.75 310.4 250.75 361 250.75" stroke="#323232" stroke-width="2" fill="none" marker-end="url(#SvgjsMarker1345)"></path></g><g id="SvgjsG1347" transform="translate(25,177)"><path id="SvgjsPath1348" d="M 0 0L 222 0L 222 35L 0 35Z" stroke="none" fill="none"></path><g id="SvgjsG1349"><text id="SvgjsText1350" font-family="微软雅黑" text-anchor="middle" font-size="13px" width="72" fill="#323232" font-weight="400" align="middle" anchor="middle" family="微软雅黑" size="13px" weight="400" font-style="" y="7.55" transform="rotate(0)"><tspan id="SvgjsTspan1351" dy="16" x="111"><tspan id="SvgjsTspan1352" style="text-decoration:;"> cancel(true</tspan><tspan id="SvgjsTspan1353" style="text-decoration:;font-size: inherit;">)</tspan></tspan></text></g></g><g id="SvgjsG1354" transform="translate(188,257)"><path id="SvgjsPath1355" d="M 0 0L 222 0L 222 35L 0 35Z" stroke="none" fill="none"></path><g id="SvgjsG1356"><text id="SvgjsText1357" font-family="微软雅黑" text-anchor="middle" font-size="13px" width="107" fill="#323232" font-weight="400" align="middle" anchor="middle" family="微软雅黑" size="13px" weight="400" font-style="" y="-0.44999999999999996" transform="rotate(0)"><tspan id="SvgjsTspan1358" dy="16" x="111"><tspan id="SvgjsTspan1359" style="text-decoration:;">cancel(true)内</tspan></tspan><tspan id="SvgjsTspan1360" dy="16" x="111"><tspan id="SvgjsTspan1361" style="text-decoration:;">调用t.interrupt()后</tspan></tspan></text></g></g><g id="SvgjsG1362" transform="translate(468,95.5)"><path id="SvgjsPath1363" d="M 0 0L 105 0L 105 30L 0 30Z" stroke="none" fill="none"></path><g id="SvgjsG1364"><text id="SvgjsText1365" font-family="微软雅黑" text-anchor="middle" font-size="13px" width="100" fill="#323232" font-weight="400" align="middle" anchor="middle" family="微软雅黑" size="13px" weight="400" font-style="" y="-2.95" transform="rotate(0)"><tspan id="SvgjsTspan1366" dy="16" x="52.5"><tspan id="SvgjsTspan1367" style="text-decoration:;">setException()内</tspan></tspan><tspan id="SvgjsTspan1368" dy="16" x="52.5"><tspan id="SvgjsTspan1369" style="text-decoration:;">存储异常后</tspan></tspan></text></g></g><g id="SvgjsG1370" transform="translate(463,144)"><path id="SvgjsPath1371" d="M 0 0L 95 0L 95 30L 0 30Z" stroke="none" fill="none"></path><g id="SvgjsG1372"><text id="SvgjsText1373" font-family="微软雅黑" text-anchor="middle" font-size="13px" width="92" fill="#323232" font-weight="400" align="middle" anchor="middle" family="微软雅黑" size="13px" weight="400" font-style="" y="-2.95" transform="rotate(0)"><tspan id="SvgjsTspan1374" dy="16" x="47.5"><tspan id="SvgjsTspan1375" style="text-decoration:;">set()内存储返回</tspan></tspan><tspan id="SvgjsTspan1376" dy="16" x="47.5"><tspan id="SvgjsTspan1377" style="text-decoration:;">值后</tspan></tspan></text></g></g></svg>