<svg id="SvgjsSvg1082" width="405" height="391.25" xmlns="http://www.w3.org/2000/svg" version="1.1" xmlns:xlink="http://www.w3.org/1999/xlink" xmlns:svgjs="http://svgjs.com/svgjs"><defs id="SvgjsDefs1083"></defs><g id="SvgjsG1084" transform="translate(25,27)"><path id="SvgjsPath1085" d="M 0 4Q 0 0 4 0L 346 0Q 350 0 350 4L 350 147Q 350 151 346 151L 4 151Q 0 151 0 147Z" stroke="#323232" stroke-width="2" fill-opacity="1" fill="#cfcfcf"></path><g id="SvgjsG1086"><text id="SvgjsText1087" font-family="微软雅黑" text-anchor="middle" font-size="13px" width="0" fill="#323232" font-weight="400" align="middle" anchor="middle" family="微软雅黑" size="13px" weight="400" font-style="" y="65.55" transform="rotate(0)"></text></g></g><g id="SvgjsG1088" transform="translate(41,66.5)"><path id="SvgjsPath1089" d="M 0 4Q 0 0 4 0L 84 0Q 88 0 88 4L 88 32Q 88 36 84 36L 4 36Q 0 36 0 32Z" stroke="#323232" stroke-width="2" fill-opacity="1" fill="#99ffcc"></path><g id="SvgjsG1090"><text id="SvgjsText1091" font-family="微软雅黑" text-anchor="middle" font-size="13px" width="39" fill="#323232" font-weight="400" align="middle" anchor="middle" family="微软雅黑" size="13px" weight="400" font-style="" y="8.05" transform="rotate(0)"><tspan id="SvgjsTspan1092" dy="16" x="44"><tspan id="SvgjsTspan1093" style="text-decoration:;">方法区</tspan></tspan></text></g></g><g id="SvgjsG1094" transform="translate(161,65)"><path id="SvgjsPath1095" d="M 0 4Q 0 0 4 0L 84 0Q 88 0 88 4L 88 35Q 88 39 84 39L 4 39Q 0 39 0 35Z" stroke="#323232" stroke-width="2" fill-opacity="1" fill="#ffffff"></path><g id="SvgjsG1096"><text id="SvgjsText1097" font-family="微软雅黑" text-anchor="middle" font-size="13px" width="52" fill="#323232" font-weight="400" align="middle" anchor="middle" family="微软雅黑" size="13px" weight="400" font-style="" y="9.55" transform="rotate(0)"><tspan id="SvgjsTspan1098" dy="16" x="44"><tspan id="SvgjsTspan1099" style="text-decoration:;">虚拟机栈</tspan></tspan></text></g></g><g id="SvgjsG1100" transform="translate(281,65)"><path id="SvgjsPath1101" d="M 0 4Q 0 0 4 0L 84 0Q 88 0 88 4L 88 35Q 88 39 84 39L 4 39Q 0 39 0 35Z" stroke="#323232" stroke-width="2" fill-opacity="1" fill="#ffffff"></path><g id="SvgjsG1102"><text id="SvgjsText1103" font-family="微软雅黑" text-anchor="middle" font-size="13px" width="65" fill="#323232" font-weight="400" align="middle" anchor="middle" family="微软雅黑" size="13px" weight="400" font-style="" y="9.55" transform="rotate(0)"><tspan id="SvgjsTspan1104" dy="16" x="44"><tspan id="SvgjsTspan1105" style="text-decoration:;">本地方法栈</tspan></tspan></text></g></g><g id="SvgjsG1106" transform="translate(41,129)"><path id="SvgjsPath1107" d="M 0 4Q 0 0 4 0L 84 0Q 88 0 88 4L 88 35Q 88 39 84 39L 4 39Q 0 39 0 35Z" stroke="#323232" stroke-width="2" fill-opacity="1" fill="#99ffcc"></path><g id="SvgjsG1108"><text id="SvgjsText1109" font-family="微软雅黑" text-anchor="middle" font-size="13px" width="13" fill="#323232" font-weight="400" align="middle" anchor="middle" family="微软雅黑" size="13px" weight="400" font-style="" y="9.55" transform="rotate(0)"><tspan id="SvgjsTspan1110" dy="16" x="44"><tspan id="SvgjsTspan1111" style="text-decoration:;">堆</tspan></tspan></text></g></g><g id="SvgjsG1112" transform="translate(161,129)"><path id="SvgjsPath1113" d="M 0 4Q 0 0 4 0L 204 0Q 208 0 208 4L 208 35Q 208 39 204 39L 4 39Q 0 39 0 35Z" stroke="#323232" stroke-width="2" fill-opacity="1" fill="#ffffff"></path><g id="SvgjsG1114"><text id="SvgjsText1115" font-family="微软雅黑" text-anchor="middle" font-size="13px" width="65" fill="#323232" font-weight="400" align="middle" anchor="middle" family="微软雅黑" size="13px" weight="400" font-style="" y="9.55" transform="rotate(0)"><tspan id="SvgjsTspan1116" dy="16" x="104"><tspan id="SvgjsTspan1117" style="text-decoration:;">程序计数器</tspan></tspan></text></g></g><g id="SvgjsG1118" transform="translate(30,236)"><path id="SvgjsPath1119" d="M 0 4Q 0 0 4 0L 84 0Q 88 0 88 4L 88 35Q 88 39 84 39L 4 39Q 0 39 0 35Z" stroke="#323232" stroke-width="2" fill-opacity="1" fill="#99ffcc"></path><g id="SvgjsG1120"><text id="SvgjsText1121" font-family="微软雅黑" text-anchor="middle" font-size="13px" width="52" fill="#323232" font-weight="400" align="middle" anchor="middle" family="微软雅黑" size="13px" weight="400" font-style="" y="9.55" transform="rotate(0)"><tspan id="SvgjsTspan1122" dy="16" x="44"><tspan id="SvgjsTspan1123" style="text-decoration:;">执行引擎</tspan></tspan></text></g></g><g id="SvgjsG1124" transform="translate(177,236)"><path id="SvgjsPath1125" d="M 0 4Q 0 0 4 0L 84 0Q 88 0 88 4L 88 35Q 88 39 84 39L 4 39Q 0 39 0 35Z" stroke="#323232" stroke-width="2" fill-opacity="1" fill="#99ffcc"></path><g id="SvgjsG1126"><text id="SvgjsText1127" font-family="微软雅黑" text-anchor="middle" font-size="13px" width="65" fill="#323232" font-weight="400" align="middle" anchor="middle" family="微软雅黑" size="13px" weight="400" font-style="" y="9.55" transform="rotate(0)"><tspan id="SvgjsTspan1128" dy="16" x="44"><tspan id="SvgjsTspan1129" style="text-decoration:;">本地库接口</tspan></tspan></text></g></g><g id="SvgjsG1130" transform="translate(311,236)"><path id="SvgjsPath1131" d="M 0 0L 69 0L 69 39L 0 39Z" stroke="none" fill="none"></path><g id="SvgjsG1132"><text id="SvgjsText1133" font-family="微软雅黑" text-anchor="middle" font-size="13px" width="65" fill="#323232" font-weight="400" align="middle" anchor="middle" family="微软雅黑" size="13px" weight="400" font-style="" y="9.55" transform="rotate(0)"><tspan id="SvgjsTspan1134" dy="16" x="34.5"><tspan id="SvgjsTspan1135" style="text-decoration:;">本地方法库</tspan></tspan></text></g></g><g id="SvgjsG1136" transform="translate(62,182)"><path id="SvgjsPath1137" d="M 17.695652173913043 0L 35.391304347826086 17.695652173913043L 23.71217391304348 17.695652173913043L 23.71217391304348 32.30434782608695L 35.391304347826086 32.30434782608695L 17.695652173913043 50L 0 32.30434782608695L 11.679130434782609 32.30434782608695L 11.679130434782609 17.695652173913043L 0 17.695652173913043L 17.695652173913043 0Z" stroke="#323232" stroke-width="2" fill-opacity="1" fill="#ffffff"></path><g id="SvgjsG1138"><text id="SvgjsText1139" font-family="微软雅黑" text-anchor="middle" font-size="13px" width="0" fill="#323232" font-weight="400" align="middle" anchor="middle" family="微软雅黑" size="13px" weight="400" font-style="" y="15.05" transform="rotate(0)"></text></g></g><g id="SvgjsG1140" transform="translate(191.60869565217388,182)"><path id="SvgjsPath1141" d="M 17.695652173913043 0L 35.391304347826086 17.695652173913043L 23.71217391304348 17.695652173913043L 23.71217391304348 32.30434782608695L 35.391304347826086 32.30434782608695L 17.695652173913043 50L 0 32.30434782608695L 11.679130434782609 32.30434782608695L 11.679130434782609 17.695652173913043L 0 17.695652173913043L 17.695652173913043 0Z" stroke="#323232" stroke-width="2" fill-opacity="1" fill="#ffffff"></path><g id="SvgjsG1142"><text id="SvgjsText1143" font-family="微软雅黑" text-anchor="middle" font-size="13px" width="0" fill="#323232" font-weight="400" align="middle" anchor="middle" family="微软雅黑" size="13px" weight="400" font-style="" y="15.05" transform="rotate(0)"></text></g></g><g id="SvgjsG1144" transform="translate(130,243.5)"><path id="SvgjsPath1145" d="M 0 7.92L 24 7.92L 24 0L 36 12L 24 24L 24 16.080000000000002L 0 16.080000000000002L 0 7.92Z" stroke="#323232" stroke-width="2" fill-opacity="1" fill="#ffffff"></path><g id="SvgjsG1146"><text id="SvgjsText1147" font-family="微软雅黑" text-anchor="middle" font-size="13px" width="0" fill="#323232" font-weight="400" align="middle" anchor="middle" family="微软雅黑" size="13px" weight="400" font-style="" y="2.05" transform="rotate(0)"></text></g></g><g id="SvgjsG1148" transform="translate(271,243.5)"><path id="SvgjsPath1149" d="M 0 7.92L 18 7.92L 18 0L 30 12L 18 24L 18 16.080000000000002L 0 16.080000000000002L 0 7.92Z" stroke="#323232" stroke-width="2" fill-opacity="1" fill="#ffffff"></path><g id="SvgjsG1150"><text id="SvgjsText1151" font-family="微软雅黑" text-anchor="middle" font-size="13px" width="0" fill="#323232" font-weight="400" align="middle" anchor="middle" family="微软雅黑" size="13px" weight="400" font-style="" y="2.05" transform="rotate(0)"></text></g></g><g id="SvgjsG1152" transform="translate(125,25)"><path id="SvgjsPath1153" d="M 0 0L 160 0L 160 40L 0 40Z" stroke="none" fill="none"></path><g id="SvgjsG1154"><text id="SvgjsText1155" font-family="微软雅黑" text-anchor="middle" font-size="13px" width="78" fill="#323232" font-weight="400" align="middle" anchor="middle" family="微软雅黑" size="13px" weight="400" font-style="" y="10.05" transform="rotate(0)"><tspan id="SvgjsTspan1156" dy="16" x="80"><tspan id="SvgjsTspan1157" style="text-decoration:;">运行时数据区</tspan></tspan></text></g></g><g id="SvgjsG1158" transform="translate(25,301.5)"><path id="SvgjsPath1159" d="M 0 4Q 0 0 4 0L 33 0Q 37 0 37 4L 37 18.5Q 37 22.5 33 22.5L 4 22.5Q 0 22.5 0 18.5Z" stroke="#323232" stroke-width="2" fill-opacity="1" fill="#99ffcc"></path><g id="SvgjsG1160"><text id="SvgjsText1161" font-family="微软雅黑" text-anchor="middle" font-size="13px" width="0" fill="#323232" font-weight="400" align="middle" anchor="middle" family="微软雅黑" size="13px" weight="400" font-style="" y="1.3" transform="rotate(0)"></text></g></g><g id="SvgjsG1162" transform="translate(88,293.25)"><path id="SvgjsPath1163" d="M 0 0L 151 0L 151 39L 0 39Z" stroke="none" fill="none"></path><g id="SvgjsG1164"><text id="SvgjsText1165" font-family="微软雅黑" text-anchor="middle" font-size="13px" width="143" fill="#323232" font-weight="400" align="middle" anchor="middle" family="微软雅黑" size="13px" weight="400" font-style="" y="9.55" transform="rotate(0)"><tspan id="SvgjsTspan1166" dy="16" x="75.5"><tspan id="SvgjsTspan1167" style="text-decoration:;">由所有线程共享的数据区</tspan></tspan></text></g></g><g id="SvgjsG1168" transform="translate(25,335.5)"><path id="SvgjsPath1169" d="M 0 4Q 0 0 4 0L 33 0Q 37 0 37 4L 37 18.5Q 37 22.5 33 22.5L 4 22.5Q 0 22.5 0 18.5Z" stroke="#323232" stroke-width="2" fill-opacity="1" fill="#ffffff"></path><g id="SvgjsG1170"><text id="SvgjsText1171" font-family="微软雅黑" text-anchor="middle" font-size="13px" width="0" fill="#323232" font-weight="400" align="middle" anchor="middle" family="微软雅黑" size="13px" weight="400" font-style="" y="1.3" transform="rotate(0)"></text></g></g><g id="SvgjsG1172" transform="translate(88,327.25)"><path id="SvgjsPath1173" d="M 0 0L 151 0L 151 39L 0 39Z" stroke="none" fill="none"></path><g id="SvgjsG1174"><text id="SvgjsText1175" font-family="微软雅黑" text-anchor="middle" font-size="13px" width="104" fill="#323232" font-weight="400" align="middle" anchor="middle" family="微软雅黑" size="13px" weight="400" font-style="" y="9.55" transform="rotate(0)"><tspan id="SvgjsTspan1176" dy="16" x="75.5"><tspan id="SvgjsTspan1177" style="text-decoration:;">线程隔离的数据区</tspan></tspan></text></g></g></svg>