<svg id="SvgjsSvg1006" width="532" height="237" xmlns="http://www.w3.org/2000/svg" version="1.1" xmlns:xlink="http://www.w3.org/1999/xlink" xmlns:svgjs="http://svgjs.com/svgjs"><defs id="SvgjsDefs1007"><marker id="SvgjsMarker1052" markerWidth="16" markerHeight="12" refX="16" refY="6" viewBox="0 0 16 12" orient="auto" markerUnits="userSpaceOnUse"><path id="SvgjsPath1053" d="M0,2 L14,6 L0,11 L0,2" fill="#323232" stroke="#323232" stroke-width="2"></path></marker><marker id="SvgjsMarker1056" markerWidth="16" markerHeight="12" refX="16" refY="6" viewBox="0 0 16 12" orient="auto" markerUnits="userSpaceOnUse"><path id="SvgjsPath1057" d="M0,2 L14,6 L0,11 L0,2" fill="#323232" stroke="#323232" stroke-width="2"></path></marker><marker id="SvgjsMarker1060" markerWidth="16" markerHeight="12" refX="16" refY="6" viewBox="0 0 16 12" orient="auto" markerUnits="userSpaceOnUse"><path id="SvgjsPath1061" d="M0,2 L14,6 L0,11 L0,2" fill="#323232" stroke="#323232" stroke-width="2"></path></marker><marker id="SvgjsMarker1064" markerWidth="16" markerHeight="12" refX="16" refY="6" viewBox="0 0 16 12" orient="auto" markerUnits="userSpaceOnUse"><path id="SvgjsPath1065" d="M0,2 L14,6 L0,11 L0,2" fill="#323232" stroke="#323232" stroke-width="2"></path></marker><marker id="SvgjsMarker1068" markerWidth="16" markerHeight="12" refX="16" refY="6" viewBox="0 0 16 12" orient="auto" markerUnits="userSpaceOnUse"><path id="SvgjsPath1069" d="M0,2 L14,6 L0,11 L0,2" fill="#323232" stroke="#323232" stroke-width="2"></path></marker></defs><g id="SvgjsG1008" transform="translate(25,25)"><path id="SvgjsPath1009" d="M 0 0L 126 0L 126 61L 0 61Z" stroke="#323232" stroke-width="2" fill-opacity="1" fill="#ffffff"></path><g id="SvgjsG1010"><text id="SvgjsText1011" font-family="微软雅黑" text-anchor="middle" font-size="13px" width="104" fill="#323232" font-weight="400" align="middle" anchor="middle" family="微软雅黑" size="13px" weight="400" font-style="" y="4.55" transform="rotate(0)"><tspan id="SvgjsTspan1012" dy="16" x="63"><tspan id="SvgjsTspan1013" style="text-decoration:;">创建任务，</tspan></tspan><tspan id="SvgjsTspan1014" dy="16" x="63"><tspan id="SvgjsTspan1015" style="text-decoration:;">设置下一次执行的</tspan></tspan><tspan id="SvgjsTspan1016" dy="16" x="63"><tspan id="SvgjsTspan1017" style="text-decoration:;">时间 time</tspan></tspan></text></g></g><g id="SvgjsG1018" transform="translate(197,25)"><path id="SvgjsPath1019" d="M 0 0L 126 0L 126 61L 0 61Z" stroke="#323232" stroke-width="2" fill-opacity="1" fill="#ffffff"></path><g id="SvgjsG1020"><text id="SvgjsText1021" font-family="微软雅黑" text-anchor="middle" font-size="13px" width="104" fill="#323232" font-weight="400" align="middle" anchor="middle" family="微软雅黑" size="13px" weight="400" font-style="" y="12.55" transform="rotate(0)"><tspan id="SvgjsTspan1022" dy="16" x="63"><tspan id="SvgjsTspan1023" style="text-decoration:;">把任务放到延时队</tspan></tspan><tspan id="SvgjsTspan1024" dy="16" x="63"><tspan id="SvgjsTspan1025" style="text-decoration:;">列</tspan></tspan></text></g></g><g id="SvgjsG1026" transform="translate(381,25)"><path id="SvgjsPath1027" d="M 0 0L 126 0L 126 61L 0 61Z" stroke="#323232" stroke-width="2" fill-opacity="1" fill="#ffffff"></path><g id="SvgjsG1028"><text id="SvgjsText1029" font-family="微软雅黑" text-anchor="middle" font-size="13px" width="104" fill="#323232" font-weight="400" align="middle" anchor="middle" family="微软雅黑" size="13px" weight="400" font-style="" y="20.55" transform="rotate(0)"><tspan id="SvgjsTspan1030" dy="16" x="63"><tspan id="SvgjsTspan1031" style="text-decoration:;">手动创建工作线程</tspan></tspan></text></g></g><g id="SvgjsG1032" transform="translate(381,151)"><path id="SvgjsPath1033" d="M 0 0L 126 0L 126 61L 0 61Z" stroke="#323232" stroke-width="2" fill-opacity="1" fill="#ffffff"></path><g id="SvgjsG1034"><text id="SvgjsText1035" font-family="微软雅黑" text-anchor="middle" font-size="13px" width="104" fill="#323232" font-weight="400" align="middle" anchor="middle" family="微软雅黑" size="13px" weight="400" font-style="" y="12.55" transform="rotate(0)"><tspan id="SvgjsTspan1036" dy="16" x="63"><tspan id="SvgjsTspan1037" style="text-decoration:;">工作线程从延时队</tspan></tspan><tspan id="SvgjsTspan1038" dy="16" x="63"><tspan id="SvgjsTspan1039" style="text-decoration:;">列取出任务执行</tspan></tspan></text></g></g><g id="SvgjsG1040" transform="translate(197,151)"><path id="SvgjsPath1041" d="M 0 0L 126 0L 126 61L 0 61Z" stroke="#323232" stroke-width="2" fill-opacity="1" fill="#ffffff"></path><g id="SvgjsG1042"><text id="SvgjsText1043" font-family="微软雅黑" text-anchor="middle" font-size="13px" width="104" fill="#323232" font-weight="400" align="middle" anchor="middle" family="微软雅黑" size="13px" weight="400" font-style="" y="4.55" transform="rotate(0)"><tspan id="SvgjsTspan1044" dy="16" x="63"><tspan id="SvgjsTspan1045" style="text-decoration:;">任务执行结束后，</tspan></tspan><tspan id="SvgjsTspan1046" dy="16" x="63"><tspan id="SvgjsTspan1047" style="text-decoration:;">根据任务的period </tspan></tspan><tspan id="SvgjsTspan1048" dy="16" x="63"><tspan id="SvgjsTspan1049" style="text-decoration:;">更新 任务的 time</tspan></tspan></text></g></g><g id="SvgjsG1050"><path id="SvgjsPath1051" d="M151 55.5L174 55.5L174 55.5L197 55.5" stroke="#323232" stroke-width="2" fill="none" marker-end="url(#SvgjsMarker1052)"></path></g><g id="SvgjsG1054"><path id="SvgjsPath1055" d="M323 55.5L352 55.5L352 55.5L381 55.5" stroke="#323232" stroke-width="2" fill="none" marker-end="url(#SvgjsMarker1056)"></path></g><g id="SvgjsG1058"><path id="SvgjsPath1059" d="M444 86L444 118.5L444 118.5L444 151" stroke="#323232" stroke-width="2" fill="none" marker-end="url(#SvgjsMarker1060)"></path></g><g id="SvgjsG1062"><path id="SvgjsPath1063" d="M381 181.5L352 181.5L352 181.5L323 181.5" stroke="#323232" stroke-width="2" fill="none" marker-end="url(#SvgjsMarker1064)"></path></g><g id="SvgjsG1066"><path id="SvgjsPath1067" d="M260 151L260 118.5L260 118.5L260 86" stroke="#323232" stroke-width="2" fill="none" marker-end="url(#SvgjsMarker1068)"></path></g></svg>