<svg id="SvgjsSvg1104" width="354.5" height="439" xmlns="http://www.w3.org/2000/svg" version="1.1" xmlns:xlink="http://www.w3.org/1999/xlink" xmlns:svgjs="http://svgjs.com/svgjs"><defs id="SvgjsDefs1105"><marker id="SvgjsMarker1128" markerWidth="16" markerHeight="12" refX="16" refY="6" viewBox="0 0 16 12" orient="auto" markerUnits="userSpaceOnUse"><path id="SvgjsPath1129" d="M0,2 L14,6 L0,11 L0,2" fill="#323232" stroke="#323232" stroke-width="2"></path></marker><marker id="SvgjsMarker1154" markerWidth="16" markerHeight="12" refX="16" refY="6" viewBox="0 0 16 12" orient="auto" markerUnits="userSpaceOnUse"><path id="SvgjsPath1155" d="M0,2 L14,6 L0,11 L0,2" fill="#323232" stroke="#323232" stroke-width="2"></path></marker><marker id="SvgjsMarker1158" markerWidth="16" markerHeight="12" refX="16" refY="6" viewBox="0 0 16 12" orient="auto" markerUnits="userSpaceOnUse"><path id="SvgjsPath1159" d="M0,2 L14,6 L0,11 L0,2" fill="#323232" stroke="#323232" stroke-width="2"></path></marker><marker id="SvgjsMarker1162" markerWidth="16" markerHeight="12" refX="16" refY="6" viewBox="0 0 16 12" orient="auto" markerUnits="userSpaceOnUse"><path id="SvgjsPath1163" d="M0,2 L14,6 L0,11 L0,2" fill="#323232" stroke="#323232" stroke-width="2"></path></marker><marker id="SvgjsMarker1166" markerWidth="16" markerHeight="12" refX="16" refY="6" viewBox="0 0 16 12" orient="auto" markerUnits="userSpaceOnUse"><path id="SvgjsPath1167" d="M0,2 L14,6 L0,11 L0,2" fill="#323232" stroke="#323232" stroke-width="2"></path></marker><marker id="SvgjsMarker1170" markerWidth="16" markerHeight="12" refX="16" refY="6" viewBox="0 0 16 12" orient="auto" markerUnits="userSpaceOnUse"><path id="SvgjsPath1171" d="M0,2 L14,6 L0,11 L0,2" fill="#323232" stroke="#323232" stroke-width="2"></path></marker></defs><g id="SvgjsG1106" transform="translate(26.5,89)"><path id="SvgjsPath1107" d="M 0 0L 117 0L 117 46L 0 46Z" stroke="#323232" stroke-width="2" fill-opacity="1" fill="#ffffff"></path><g id="SvgjsG1108"><text id="SvgjsText1109" font-family="微软雅黑" text-anchor="middle" font-size="13px" width="91" fill="#323232" font-weight="400" align="middle" anchor="middle" family="微软雅黑" size="13px" weight="400" font-style="" y="5.05" transform="rotate(0)"><tspan id="SvgjsTspan1110" dy="16" x="58.5"><tspan id="SvgjsTspan1111" style="text-decoration:;">在lock目录下创</tspan></tspan><tspan id="SvgjsTspan1112" dy="16" x="58.5"><tspan id="SvgjsTspan1113" style="text-decoration:;">建一个顺序节点</tspan></tspan></text></g></g><g id="SvgjsG1114" transform="translate(65,374)"><path id="SvgjsPath1115" d="M 0 20C 0 -6.666666666666667 40 -6.666666666666667 40 20C 40 46.666666666666664 0 46.666666666666664 0 20Z" stroke="#323232" stroke-width="4" fill-opacity="1" fill="#ffffff"></path><path id="SvgjsPath1116" d="M 10 20C 10 6.666666666666666 30 6.666666666666666 30 20C 30 33.333333333333336 10 33.333333333333336 10 20Z" stroke="none" fill-opacity="1" fill="#323232"></path><path id="SvgjsPath1117" d="M 0 20C 0 -6.666666666666667 40 -6.666666666666667 40 20C 40 46.666666666666664 0 46.666666666666664 0 20Z" stroke="none" fill="none"></path><g id="SvgjsG1118"><text id="SvgjsText1119" font-family="微软雅黑" text-anchor="middle" font-size="13px" width="0" fill="#323232" font-weight="400" align="middle" anchor="middle" family="微软雅黑" size="13px" weight="400" font-style="" y="45.05" transform="rotate(0)"></text></g></g><g id="SvgjsG1120" transform="translate(33.5,25)"><path id="SvgjsPath1121" d="M 0 0L 103 0L 103 39L 0 39Z" stroke="#323232" stroke-width="2" fill-opacity="1" fill="#ffffff"></path><g id="SvgjsG1122"><text id="SvgjsText1123" font-family="微软雅黑" text-anchor="middle" font-size="13px" width="39" fill="#323232" font-weight="400" align="middle" anchor="middle" family="微软雅黑" size="13px" weight="400" font-style="" y="9.55" transform="rotate(0)"><tspan id="SvgjsTspan1124" dy="16" x="51.5"><tspan id="SvgjsTspan1125" style="text-decoration:;">请求锁</tspan></tspan></text></g></g><g id="SvgjsG1126"><path id="SvgjsPath1127" d="M85 64L85 76.5L85 76.5L85 89" stroke="#323232" stroke-width="2" fill="none" marker-end="url(#SvgjsMarker1128)"></path></g><g id="SvgjsG1130" transform="translate(26.5,295)"><path id="SvgjsPath1131" d="M 0 0L 117 0L 117 46L 0 46Z" stroke="#323232" stroke-width="2" fill-opacity="1" fill="#ffffff"></path><g id="SvgjsG1132"><text id="SvgjsText1133" font-family="微软雅黑" text-anchor="middle" font-size="13px" width="65" fill="#323232" font-weight="400" align="middle" anchor="middle" family="微软雅黑" size="13px" weight="400" font-style="" y="13.05" transform="rotate(0)"><tspan id="SvgjsTspan1134" dy="16" x="58.5"><tspan id="SvgjsTspan1135" style="text-decoration:;">获取锁成功</tspan></tspan></text></g></g><g id="SvgjsG1136" transform="translate(25,174)"><path id="SvgjsPath1137" d="M 0 40L 60 0L 120 40L 60 80Z" stroke="#323232" stroke-width="2" fill-opacity="1" fill="#ffffff"></path><g id="SvgjsG1138"><text id="SvgjsText1139" font-family="微软雅黑" text-anchor="middle" font-size="13px" width="91" fill="#323232" font-weight="400" align="middle" anchor="middle" family="微软雅黑" size="13px" weight="400" font-style="" y="22.45" transform="rotate(0)"><tspan id="SvgjsTspan1140" dy="16" x="60"><tspan id="SvgjsTspan1141" style="text-decoration:;">节点编号在目录</tspan></tspan><tspan id="SvgjsTspan1142" dy="16" x="60"><tspan id="SvgjsTspan1143" style="text-decoration:;">下最小</tspan></tspan></text></g></g><g id="SvgjsG1144" transform="translate(212.5,191)"><path id="SvgjsPath1145" d="M 0 0L 117 0L 117 46L 0 46Z" stroke="#323232" stroke-width="2" fill-opacity="1" fill="#ffffff"></path><g id="SvgjsG1146"><text id="SvgjsText1147" font-family="微软雅黑" text-anchor="middle" font-size="13px" width="92" fill="#323232" font-weight="400" align="middle" anchor="middle" family="微软雅黑" size="13px" weight="400" font-style="" y="5.05" transform="rotate(0)"><tspan id="SvgjsTspan1148" dy="16" x="58.5"><tspan id="SvgjsTspan1149" style="text-decoration:;">watch 编号排在</tspan></tspan><tspan id="SvgjsTspan1150" dy="16" x="58.5"><tspan id="SvgjsTspan1151" style="text-decoration:;">它前边的节点</tspan></tspan></text></g></g><g id="SvgjsG1152"><path id="SvgjsPath1153" d="M85 135L85 154.5L85 154.5L85 174" stroke="#323232" stroke-width="2" fill="none" marker-end="url(#SvgjsMarker1154)"></path></g><g id="SvgjsG1156"><path id="SvgjsPath1157" d="M85 254L85 274.5L85 274.5L85 295" stroke="#323232" stroke-width="2" fill="none" marker-end="url(#SvgjsMarker1158)"></path></g><g id="SvgjsG1160"><path id="SvgjsPath1161" d="M85 341L85 357.5L85 357.5L85 374" stroke="#323232" stroke-width="2" fill="none" marker-end="url(#SvgjsMarker1162)"></path></g><g id="SvgjsG1164"><path id="SvgjsPath1165" d="M145 214L178.75 214L178.75 214L212.5 214" stroke="#323232" stroke-width="2" fill="none" marker-end="url(#SvgjsMarker1166)"></path></g><g id="SvgjsG1168"><path id="SvgjsPath1169" d="M271 191L271 153L86 153" stroke="#323232" stroke-width="2" fill="none" marker-end="url(#SvgjsMarker1170)"></path></g><g id="SvgjsG1172" transform="translate(36,254)"><path id="SvgjsPath1173" d="M 0 0L 43 0L 43 28L 0 28Z" stroke="none" fill="none"></path><g id="SvgjsG1174"><text id="SvgjsText1175" font-family="微软雅黑" text-anchor="middle" font-size="13px" width="13" fill="#323232" font-weight="400" align="middle" anchor="middle" family="微软雅黑" size="13px" weight="400" font-style="" y="4.05" transform="rotate(0)"><tspan id="SvgjsTspan1176" dy="16" x="21.5"><tspan id="SvgjsTspan1177" style="text-decoration:;">是</tspan></tspan></text></g></g><g id="SvgjsG1178" transform="translate(151,218)"><path id="SvgjsPath1179" d="M 0 0L 43 0L 43 28L 0 28Z" stroke="none" fill="none"></path><g id="SvgjsG1180"><text id="SvgjsText1181" font-family="微软雅黑" text-anchor="middle" font-size="13px" width="13" fill="#323232" font-weight="400" align="middle" anchor="middle" family="微软雅黑" size="13px" weight="400" font-style="" y="4.05" transform="rotate(0)"><tspan id="SvgjsTspan1182" dy="16" x="21.5"><tspan id="SvgjsTspan1183" style="text-decoration:;">否</tspan></tspan></text></g></g><g id="SvgjsG1184" transform="translate(162,129)"><path id="SvgjsPath1185" d="M 0 0L 157 0L 157 20L 0 20Z" stroke="none" fill="none"></path><g id="SvgjsG1186"><text id="SvgjsText1187" font-family="微软雅黑" text-anchor="middle" font-size="13px" width="156" fill="#323232" font-weight="400" align="middle" anchor="middle" family="微软雅黑" size="13px" weight="400" font-style="" y="0.050000000000000044" transform="rotate(0)"><tspan id="SvgjsTspan1188" dy="16" x="78.5"><tspan id="SvgjsTspan1189" style="text-decoration:;">前边的节点释放锁，被删除</tspan></tspan></text></g></g></svg>