<svg id="SvgjsSvg1006" width="382.5" height="434" xmlns="http://www.w3.org/2000/svg" version="1.1" xmlns:xlink="http://www.w3.org/1999/xlink" xmlns:svgjs="http://svgjs.com/svgjs"><defs id="SvgjsDefs1007"><marker id="SvgjsMarker1042" markerWidth="16" markerHeight="12" refX="16" refY="6" viewBox="0 0 16 12" orient="auto" markerUnits="userSpaceOnUse"><path id="SvgjsPath1043" d="M0,2 L14,6 L0,11 L0,2" fill="#323232" stroke="#323232" stroke-width="2"></path></marker><marker id="SvgjsMarker1046" markerWidth="16" markerHeight="12" refX="16" refY="6" viewBox="0 0 16 12" orient="auto" markerUnits="userSpaceOnUse"><path id="SvgjsPath1047" d="M0,2 L14,6 L0,11 L0,2" fill="#323232" stroke="#323232" stroke-width="2"></path></marker><marker id="SvgjsMarker1050" markerWidth="16" markerHeight="12" refX="16" refY="6" viewBox="0 0 16 12" orient="auto" markerUnits="userSpaceOnUse"><path id="SvgjsPath1051" d="M0,2 L14,6 L0,11 L0,2" fill="#323232" stroke="#323232" stroke-width="2"></path></marker><marker id="SvgjsMarker1054" markerWidth="16" markerHeight="12" refX="16" refY="6" viewBox="0 0 16 12" orient="auto" markerUnits="userSpaceOnUse"><path id="SvgjsPath1055" d="M0,2 L14,6 L0,11 L0,2" fill="#323232" stroke="#323232" stroke-width="2"></path></marker><marker id="SvgjsMarker1058" markerWidth="16" markerHeight="12" refX="16" refY="6" viewBox="0 0 16 12" orient="auto" markerUnits="userSpaceOnUse"><path id="SvgjsPath1059" d="M0,2 L14,6 L0,11 L0,2" fill="#323232" stroke="#323232" stroke-width="2"></path></marker><marker id="SvgjsMarker1068" markerWidth="16" markerHeight="12" refX="16" refY="6" viewBox="0 0 16 12" orient="auto" markerUnits="userSpaceOnUse"><path id="SvgjsPath1069" d="M0,2 L14,6 L0,11 L0,2" fill="#323232" stroke="#323232" stroke-width="2"></path></marker><marker id="SvgjsMarker1102" markerWidth="16" markerHeight="12" refX="16" refY="6" viewBox="0 0 16 12" orient="auto" markerUnits="userSpaceOnUse"><path id="SvgjsPath1103" d="M0,2 L14,6 L0,11 L0,2" fill="#323232" stroke="#323232" stroke-width="2"></path></marker></defs><g id="SvgjsG1008" transform="translate(29,200)"><path id="SvgjsPath1009" d="M 0 0L 103 0L 103 39L 0 39Z" stroke="#323232" stroke-width="2" fill-opacity="1" fill="#ffffff"></path><g id="SvgjsG1010"><text id="SvgjsText1011" font-family="微软雅黑" text-anchor="middle" font-size="13px" width="52" fill="#323232" font-weight="400" align="middle" anchor="middle" family="微软雅黑" size="13px" weight="400" font-style="" y="9.55" transform="rotate(0)"><tspan id="SvgjsTspan1012" dy="16" x="51.5"><tspan id="SvgjsTspan1013" style="text-decoration:;">创建节点</tspan></tspan></text></g></g><g id="SvgjsG1014" transform="translate(162,93)"><path id="SvgjsPath1015" d="M 0 34.5L 72 0L 144 34.5L 72 69Z" stroke="#323232" stroke-width="2" fill-opacity="1" fill="#ffffff"></path><g id="SvgjsG1016"><text id="SvgjsText1017" font-family="微软雅黑" text-anchor="middle" font-size="13px" width="116" fill="#323232" font-weight="400" align="middle" anchor="middle" family="微软雅黑" size="13px" weight="400" font-style="" y="24.895" transform="rotate(0)"><tspan id="SvgjsTspan1018" dy="16" x="72"><tspan id="SvgjsTspan1019" style="text-decoration:;">是否有lock节点存在</tspan></tspan></text></g></g><g id="SvgjsG1020" transform="translate(29,294)"><path id="SvgjsPath1021" d="M 0 0L 103 0L 103 39L 0 39Z" stroke="#323232" stroke-width="2" fill-opacity="1" fill="#ffffff"></path><g id="SvgjsG1022"><text id="SvgjsText1023" font-family="微软雅黑" text-anchor="middle" font-size="13px" width="52" fill="#323232" font-weight="400" align="middle" anchor="middle" family="微软雅黑" size="13px" weight="400" font-style="" y="9.55" transform="rotate(0)"><tspan id="SvgjsTspan1024" dy="16" x="51.5"><tspan id="SvgjsTspan1025" style="text-decoration:;">获取到锁</tspan></tspan></text></g></g><g id="SvgjsG1026" transform="translate(60.5,369)"><path id="SvgjsPath1027" d="M 0 20C 0 -6.666666666666667 40 -6.666666666666667 40 20C 40 46.666666666666664 0 46.666666666666664 0 20Z" stroke="#323232" stroke-width="4" fill-opacity="1" fill="#ffffff"></path><path id="SvgjsPath1028" d="M 10 20C 10 6.666666666666666 30 6.666666666666666 30 20C 30 33.333333333333336 10 33.333333333333336 10 20Z" stroke="none" fill-opacity="1" fill="#323232"></path><path id="SvgjsPath1029" d="M 0 20C 0 -6.666666666666667 40 -6.666666666666667 40 20C 40 46.666666666666664 0 46.666666666666664 0 20Z" stroke="none" fill="none"></path><g id="SvgjsG1030"><text id="SvgjsText1031" font-family="微软雅黑" text-anchor="middle" font-size="13px" width="0" fill="#323232" font-weight="400" align="middle" anchor="middle" family="微软雅黑" size="13px" weight="400" font-style="" y="45.05" transform="rotate(0)"></text></g></g><g id="SvgjsG1032" transform="translate(182.5,200)"><path id="SvgjsPath1033" d="M 0 0L 103 0L 103 39L 0 39Z" stroke="#323232" stroke-width="2" fill-opacity="1" fill="#ffffff"></path><g id="SvgjsG1034"><text id="SvgjsText1035" font-family="微软雅黑" text-anchor="middle" font-size="13px" width="82" fill="#323232" font-weight="400" align="middle" anchor="middle" family="微软雅黑" size="13px" weight="400" font-style="" y="1.55" transform="rotate(0)"><tspan id="SvgjsTspan1036" dy="16" x="51.5"><tspan id="SvgjsTspan1037" style="text-decoration:;">Watch 节点删</tspan></tspan><tspan id="SvgjsTspan1038" dy="16" x="51.5"><tspan id="SvgjsTspan1039" style="text-decoration:;">除</tspan></tspan></text></g></g><g id="SvgjsG1040"><path id="SvgjsPath1041" d="M162 127.5L80.5 127.5L80.5 200" stroke="#323232" stroke-width="2" fill="none" marker-end="url(#SvgjsMarker1042)"></path></g><g id="SvgjsG1044"><path id="SvgjsPath1045" d="M80.5 239L80.5 266.5L80.5 266.5L80.5 294" stroke="#323232" stroke-width="2" fill="none" marker-end="url(#SvgjsMarker1046)"></path></g><g id="SvgjsG1048"><path id="SvgjsPath1049" d="M80.5 333L80.5 351L80.5 351L80.5 369" stroke="#323232" stroke-width="2" fill="none" marker-end="url(#SvgjsMarker1050)"></path></g><g id="SvgjsG1052"><path id="SvgjsPath1053" d="M234 162L234 181L234 181L234 200" stroke="#323232" stroke-width="2" fill="none" marker-end="url(#SvgjsMarker1054)"></path></g><g id="SvgjsG1056"><path id="SvgjsPath1057" d="M285.5 219.5L336 219.5L336 127.5L306 127.5" stroke="#323232" stroke-width="2" fill="none" marker-end="url(#SvgjsMarker1058)"></path></g><g id="SvgjsG1060" transform="translate(182.5,25)"><path id="SvgjsPath1061" d="M 0 0L 103 0L 103 39L 0 39Z" stroke="#323232" stroke-width="2" fill-opacity="1" fill="#ffffff"></path><g id="SvgjsG1062"><text id="SvgjsText1063" font-family="微软雅黑" text-anchor="middle" font-size="13px" width="39" fill="#323232" font-weight="400" align="middle" anchor="middle" family="微软雅黑" size="13px" weight="400" font-style="" y="9.55" transform="rotate(0)"><tspan id="SvgjsTspan1064" dy="16" x="51.5"><tspan id="SvgjsTspan1065" style="text-decoration:;">请求锁</tspan></tspan></text></g></g><g id="SvgjsG1066"><path id="SvgjsPath1067" d="M132 219.5L157.25 219.5L157.25 219.5L182.5 219.5" stroke="#323232" stroke-width="2" fill="none" marker-end="url(#SvgjsMarker1068)"></path></g><g id="SvgjsG1070" transform="translate(97,99)"><path id="SvgjsPath1071" d="M 0 0L 53 0L 53 27L 0 27Z" stroke="none" fill="none"></path><g id="SvgjsG1072"><text id="SvgjsText1073" font-family="微软雅黑" text-anchor="middle" font-size="13px" width="13" fill="#323232" font-weight="400" align="middle" anchor="middle" family="微软雅黑" size="13px" weight="400" font-style="" y="3.55" transform="rotate(0)"><tspan id="SvgjsTspan1074" dy="16" x="26.5"><tspan id="SvgjsTspan1075" style="text-decoration:;">是</tspan></tspan></text></g></g><g id="SvgjsG1076" transform="translate(189,157)"><path id="SvgjsPath1077" d="M 0 0L 53 0L 53 27L 0 27Z" stroke="none" fill="none"></path><g id="SvgjsG1078"><text id="SvgjsText1079" font-family="微软雅黑" text-anchor="middle" font-size="13px" width="13" fill="#323232" font-weight="400" align="middle" anchor="middle" family="微软雅黑" size="13px" weight="400" font-style="" y="3.55" transform="rotate(0)"><tspan id="SvgjsTspan1080" dy="16" x="26.5"><tspan id="SvgjsTspan1081" style="text-decoration:;">否</tspan></tspan></text></g></g><g id="SvgjsG1082" transform="translate(285.5,230)"><path id="SvgjsPath1083" d="M 0 0L 72 0L 72 27L 0 27Z" stroke="none" fill="none"></path><g id="SvgjsG1084"><text id="SvgjsText1085" font-family="微软雅黑" text-anchor="middle" font-size="13px" width="65" fill="#323232" font-weight="400" align="middle" anchor="middle" family="微软雅黑" size="13px" weight="400" font-style="" y="3.55" transform="rotate(0)"><tspan id="SvgjsTspan1086" dy="16" x="36"><tspan id="SvgjsTspan1087" style="text-decoration:;">节点被删除</tspan></tspan></text></g></g><g id="SvgjsG1088" transform="translate(122.5,226)"><path id="SvgjsPath1089" d="M 0 0L 72 0L 72 27L 0 27Z" stroke="none" fill="none"></path><g id="SvgjsG1090"><text id="SvgjsText1091" font-family="微软雅黑" text-anchor="middle" font-size="13px" width="26" fill="#323232" font-weight="400" align="middle" anchor="middle" family="微软雅黑" size="13px" weight="400" font-style="" y="3.55" transform="rotate(0)"><tspan id="SvgjsTspan1092" dy="16" x="36"><tspan id="SvgjsTspan1093" style="text-decoration:;">失败</tspan></tspan></text></g></g><g id="SvgjsG1094" transform="translate(25,257)"><path id="SvgjsPath1095" d="M 0 0L 72 0L 72 27L 0 27Z" stroke="none" fill="none"></path><g id="SvgjsG1096"><text id="SvgjsText1097" font-family="微软雅黑" text-anchor="middle" font-size="13px" width="26" fill="#323232" font-weight="400" align="middle" anchor="middle" family="微软雅黑" size="13px" weight="400" font-style="" y="3.55" transform="rotate(0)"><tspan id="SvgjsTspan1098" dy="16" x="36"><tspan id="SvgjsTspan1099" style="text-decoration:;">成功</tspan></tspan></text></g></g><g id="SvgjsG1100"><path id="SvgjsPath1101" d="M234 64L234 78.5L234 78.5L234 93" stroke="#323232" stroke-width="2" fill="none" marker-end="url(#SvgjsMarker1102)"></path></g></svg>